<?xml version="1.0" standalone="no"?>
<!DOCTYPE svg PUBLIC "-//W3C//DTD SVG 20010904//EN"
 "http://www.w3.org/TR/2001/REC-SVG-20010904/DTD/svg10.dtd">
<svg version="1.0" xmlns="http://www.w3.org/2000/svg"
 width="188.000000pt" height="188.000000pt" viewBox="0 0 188.000000 188.000000"
 preserveAspectRatio="xMidYMid meet">
<metadata>
Created by potrace 1.16, written by Peter Selinger 2001-2019
</metadata>
<g transform="translate(0.000000,188.000000) scale(0.100000,-0.100000)"
fill="#000000" stroke="none">
<path d="M1151 1534 c-16 -21 -21 -41 -21 -88 0 -66 11 -86 45 -86 36 0 121
47 145 80 l22 31 -28 31 c-61 63 -128 77 -163 32z"/>
<path d="M813 1463 c-28 -31 -53 -82 -53 -111 0 -28 33 -53 77 -58 44 -5 78
10 106 48 18 24 18 30 7 57 -14 35 -73 91 -96 91 -8 0 -27 -12 -41 -27z"/>
<path d="M632 1467 c-43 -13 -92 -59 -92 -87 0 -47 117 -122 164 -104 41 16
40 140 -1 176 -28 24 -36 25 -71 15z"/>
<path d="M1388 1436 c-37 -20 -77 -66 -78 -90 0 -11 9 -30 21 -42 l20 -21 -27
0 c-29 0 -69 -37 -58 -54 3 -6 -5 -7 -20 -3 -21 5 -33 -1 -60 -28 -46 -46 -64
-105 -43 -146 11 -23 11 -29 2 -26 -24 10 -45 -37 -45 -99 0 -48 4 -62 25 -82
13 -14 32 -25 41 -25 12 0 7 -11 -20 -40 -20 -23 -36 -50 -36 -64 0 -50 130
-107 182 -80 37 19 54 67 40 108 -7 18 -12 44 -12 58 0 34 -27 61 -54 54 -20
-5 -20 -4 2 14 30 25 28 56 -8 92 -33 33 -37 40 -16 32 7 -3 30 2 50 10 32 13
36 19 36 50 0 35 1 35 26 24 24 -11 29 -9 50 15 32 37 32 88 -1 131 l-25 32
51 -10 c48 -10 52 -9 70 13 37 46 15 172 -33 185 -35 9 -50 7 -80 -8z"/>
<path d="M1034 1355 c-25 -25 -26 -31 -21 -87 4 -47 11 -67 30 -86 24 -24 25
-24 61 -7 38 18 96 80 96 102 0 19 -59 81 -83 88 -12 4 -30 9 -39 11 -11 3
-29 -6 -44 -21z"/>
<path d="M865 1218 c-15 -12 -38 -44 -51 -72 -13 -28 -24 -46 -24 -39 0 21
-39 25 -70 6 -33 -19 -100 -99 -100 -117 1 -34 72 -76 128 -76 46 0 67 31 64
95 l-2 54 36 -15 c44 -19 103 -11 133 17 29 27 27 42 -15 110 -39 65 -56 71
-99 37z"/>
<path d="M436 1158 c-10 -14 -16 -44 -16 -81 0 -48 4 -62 25 -82 28 -29 63
-32 108 -9 71 36 82 62 45 109 -26 33 -105 85 -129 85 -10 0 -25 -10 -33 -22z"/>
<path d="M1522 1107 c-24 -11 -38 -47 -28 -72 4 -11 -2 -15 -22 -15 -34 0 -84
-48 -107 -103 -23 -55 -4 -81 69 -98 90 -20 136 11 116 79 -7 27 -6 28 28 28
28 0 41 7 64 35 39 46 45 75 22 100 -38 42 -105 64 -142 46z"/>
<path d="M932 965 c-31 -20 -48 -39 -51 -55 -8 -59 67 -130 122 -116 36 9 77
80 77 133 0 78 -63 94 -148 38z"/>
<path d="M683 867 c-29 -16 -63 -61 -64 -84 0 -15 -1 -15 -9 3 -5 12 -14 25
-21 30 -21 13 -110 6 -135 -11 -42 -28 -25 -97 37 -149 45 -38 77 -32 103 19
l21 40 23 -23 23 -23 -21 -29 c-19 -27 -19 -32 -7 -62 18 -42 53 -66 106 -73
33 -4 43 -1 56 17 20 29 19 64 -4 114 -12 27 -30 46 -49 55 -27 12 -29 15 -17
29 8 9 24 37 35 63 20 45 20 50 6 73 -18 26 -48 30 -83 11z"/>
<path d="M1418 749 c-19 -11 -68 -106 -68 -131 0 -30 31 -43 100 -43 80 0 110
19 110 69 0 24 -10 42 -43 74 -43 42 -67 50 -99 31z"/>
<path d="M867 720 c-31 -25 -36 -70 -13 -123 22 -52 49 -71 85 -59 28 10 30 9
19 -8 -16 -24 1 -44 64 -76 55 -28 71 -30 88 -9 12 14 17 12 44 -13 33 -32 86
-62 109 -62 7 0 24 11 37 25 20 21 24 37 25 86 0 93 -35 110 -132 64 l-53 -24
0 25 c0 18 -11 32 -45 53 -31 19 -41 31 -34 38 18 18 -17 59 -64 76 -77 28
-101 30 -130 7z"/>
<path d="M525 450 c-36 -14 -43 -32 -35 -83 9 -59 38 -101 74 -105 52 -6 157
76 143 113 -7 15 -102 70 -137 78 -14 3 -34 2 -45 -3z"/>
<path d="M490 280 c0 -5 5 -10 10 -10 6 0 10 5 10 10 0 6 -4 10 -10 10 -5 0
-10 -4 -10 -10z"/>
<path d="M680 279 c0 -5 5 -7 10 -4 6 3 10 8 10 11 0 2 -4 4 -10 4 -5 0 -10
-5 -10 -11z"/>
</g>
</svg>
