<?xml version="1.0" standalone="no"?>
<!DOCTYPE svg PUBLIC "-//W3C//DTD SVG 20010904//EN"
 "http://www.w3.org/TR/2001/REC-SVG-20010904/DTD/svg10.dtd">
<svg version="1.0" xmlns="http://www.w3.org/2000/svg"
 width="188.000000pt" height="188.000000pt" viewBox="0 0 188.000000 188.000000"
 preserveAspectRatio="xMidYMid meet">
<metadata>
Created by potrace 1.16, written by Peter Selinger 2001-2019
</metadata>
<g transform="translate(0.000000,188.000000) scale(0.100000,-0.100000)"
fill="#000000" stroke="none">
<path d="M505 1248 c-28 -32 -34 -34 -83 -31 -48 3 -56 0 -86 -29 -19 -18 -36
-43 -37 -55 -4 -22 -5 -22 -49 13 -33 26 -52 35 -73 31 -15 -2 -30 0 -33 5
-10 15 -44 8 -56 -12 -7 -11 -18 -20 -25 -20 -6 0 -18 -7 -27 -15 -18 -19 -15
-98 5 -137 23 -44 606 -608 627 -608 11 0 22 -7 26 -15 7 -19 50 -19 66 0 8 9
21 13 35 9 27 -7 70 29 61 51 -2 7 6 21 20 29 25 17 32 50 13 62 -6 3 -8 17
-5 30 5 20 -4 34 -56 83 -35 32 -91 83 -125 111 -70 59 -79 72 -30 42 255
-157 546 -325 562 -324 11 1 24 7 30 14 5 7 21 13 35 13 15 0 28 8 35 21 5 11
17 28 27 37 11 12 15 31 13 67 -2 43 -8 56 -39 86 -20 20 -67 53 -104 75 -37
21 -62 39 -57 39 5 0 118 -36 251 -80 133 -44 250 -80 260 -80 35 1 99 45 102
71 2 13 10 31 17 39 13 14 16 103 4 113 -30 26 -126 66 -269 111 -96 30 -209
66 -250 79 -41 14 -91 29 -110 35 -19 5 -143 44 -275 87 -153 49 -263 78 -305
82 -64 5 -65 5 -95 -29z m165 -23 c25 -7 119 -37 210 -65 91 -29 194 -61 230
-72 36 -11 164 -51 285 -90 121 -38 243 -76 270 -85 28 -9 59 -24 71 -34 11
-11 26 -19 33 -19 11 0 11 -3 0 -16 -10 -12 -10 -20 -1 -34 9 -14 8 -19 -3
-24 -8 -3 -15 -17 -15 -30 0 -18 -4 -24 -14 -20 -8 3 -19 -3 -26 -15 -6 -12
-17 -21 -24 -21 -7 0 -183 56 -392 124 -414 136 -434 142 -434 130 1 -5 89
-58 197 -119 216 -121 285 -173 263 -200 -11 -13 -10 -19 5 -35 10 -11 16 -20
12 -20 -3 0 -14 -3 -24 -7 -15 -5 -16 -4 -6 8 9 11 8 18 -1 32 -20 26 -28 21
-21 -13 6 -29 6 -30 -18 -19 -13 6 -24 18 -24 26 0 13 3 12 15 -3 13 -18 14
-18 7 4 -6 22 -4 23 35 26 29 2 -10 55 -57 80 -30 15 -63 13 -63 -4 0 -5 -3
-16 -7 -26 -4 -12 -3 -15 5 -10 7 4 12 5 12 2 0 -3 -12 -12 -27 -20 l-28 -15
25 -10 25 -10 -25 -1 c-23 -1 -24 -1 -7 -15 18 -13 17 -14 -5 -17 -20 -3 -18
-7 26 -36 43 -27 52 -30 65 -18 24 20 61 27 61 11 0 -9 -8 -11 -21 -8 -14 4
-27 0 -35 -11 -15 -22 17 -38 -349 179 -420 249 -507 303 -539 336 -28 28 -28
30 -11 49 15 16 15 22 5 35 -10 13 -9 15 9 15 14 0 21 6 21 19 0 16 7 18 44
16 24 -2 53 -9 64 -16 17 -11 24 -11 34 -1 9 9 9 15 1 23 -8 8 -5 17 11 33 25
27 72 31 136 11z m-497 -90 c21 6 45 -12 164 -117 76 -68 221 -194 321 -281
170 -149 181 -160 175 -188 -4 -21 -1 -30 11 -35 23 -9 20 -22 -6 -26 -18 -2
-23 -9 -23 -35 0 -29 -2 -31 -26 -26 -16 3 -32 -1 -42 -11 -20 -21 -24 -20
-30 5 -5 17 -11 20 -29 16 -20 -5 -40 9 -123 94 -55 56 -183 180 -285 277
-182 174 -234 237 -210 252 9 6 9 13 1 29 -11 19 -9 21 19 21 24 0 30 4 30 21
0 17 3 19 14 10 8 -7 25 -9 39 -6z"/>
<path d="M1669 887 c-1 -6 -1 -15 0 -19 0 -5 -4 -8 -11 -8 -6 0 -1 -11 11 -24
l23 -25 -23 6 c-13 4 -27 11 -31 17 -4 6 -10 7 -14 4 -3 -4 7 -20 23 -36 l29
-29 -28 -12 c-26 -12 -30 -31 -7 -31 6 0 8 4 4 9 -3 5 -1 12 5 16 5 3 10 2 10
-4 0 -6 7 -8 15 -5 10 4 13 0 10 -17 -5 -23 -4 -23 20 3 14 15 25 31 25 36 0
6 6 12 14 15 17 7 14 60 -5 79 -25 23 -69 39 -70 25z m21 -37 c0 -5 -4 -10
-10 -10 -5 0 -10 5 -10 10 0 6 5 10 10 10 6 0 10 -4 10 -10z m34 -35 c3 -8 1
-15 -4 -15 -6 0 -10 7 -10 15 0 8 2 15 4 15 2 0 6 -7 10 -15z"/>
<path d="M700 619 c0 -13 -4 -18 -12 -13 -6 4 -8 3 -4 -4 3 -6 2 -13 -4 -17
-5 -3 -10 -10 -10 -14 0 -9 52 -7 68 3 7 4 10 2 7 -6 -3 -8 12 -23 36 -36 40
-23 41 -24 20 -38 -12 -9 -21 -22 -21 -30 0 -8 -7 -14 -15 -14 -21 0 -65 30
-65 44 0 6 5 4 10 -4 5 -8 10 -10 10 -4 0 7 -12 19 -26 29 -21 14 -28 14 -42
3 -13 -11 -15 -11 -9 4 4 12 2 15 -9 11 -36 -14 1 -83 45 -83 16 0 34 -7 41
-15 9 -11 16 -13 24 -5 5 5 21 10 34 10 17 0 22 4 19 15 -4 8 4 22 18 33 21
17 23 21 10 32 -10 8 -12 17 -5 30 12 23 -42 75 -87 83 -28 6 -33 4 -33 -14z
m22 -21 c-7 -7 -12 -8 -12 -2 0 14 12 26 19 19 2 -3 -1 -11 -7 -17z m58 -3 c0
-8 -4 -15 -10 -15 -5 0 -7 7 -4 15 4 8 8 15 10 15 2 0 4 -7 4 -15z"/>
<path d="M690 530 c0 -5 5 -10 10 -10 6 0 10 5 10 10 0 6 -4 10 -10 10 -5 0
-10 -4 -10 -10z"/>
</g>
</svg>
