<?xml version="1.0" standalone="no"?>
<!DOCTYPE svg PUBLIC "-//W3C//DTD SVG 20010904//EN"
 "http://www.w3.org/TR/2001/REC-SVG-20010904/DTD/svg10.dtd">
<svg version="1.0" xmlns="http://www.w3.org/2000/svg"
 width="188.000000pt" height="188.000000pt" viewBox="0 0 188.000000 188.000000"
 preserveAspectRatio="xMidYMid meet">
<metadata>
Created by potrace 1.16, written by Peter Selinger 2001-2019
</metadata>
<g transform="translate(0.000000,188.000000) scale(0.100000,-0.100000)"
fill="#000000" stroke="none">
<path d="M590 1560 c-17 -17 -20 -33 -20 -118 0 -92 -2 -100 -25 -122 -22 -21
-25 -32 -25 -94 l0 -71 -36 -20 c-20 -11 -47 -33 -60 -51 l-24 -31 0 -409 0
-410 36 -35 35 -34 214 0 214 0 31 30 c16 16 35 46 41 68 6 24 9 173 7 405 -3
365 -3 367 -27 405 -12 21 -41 47 -62 58 l-39 19 0 69 c0 53 -4 74 -20 94 -16
21 -20 40 -20 112 0 89 -14 137 -45 149 -9 3 -48 6 -86 6 -56 0 -73 -4 -89
-20z m151 -30 c17 -9 19 -22 19 -98 l0 -87 -72 3 -73 3 0 85 c1 64 5 88 15 94
20 13 87 12 111 0z m59 -250 c5 -8 10 -41 10 -72 l0 -58 -120 0 -120 0 0 65
c0 50 4 66 18 75 27 16 201 9 212 -10z m78 -196 c51 -35 52 -45 52 -449 l0
-376 -25 -24 c-24 -25 -25 -25 -218 -25 -177 0 -197 2 -218 19 l-24 19 -3 378
c-3 403 -1 417 46 454 22 18 41 20 196 20 139 0 176 -3 194 -16z"/>
<path d="M665 1496 c-27 -20 -15 -51 20 -51 23 0 31 5 33 22 4 29 -28 47 -53
29z"/>
<path d="M1017 1424 c-10 -10 -9 -146 2 -299 5 -71 12 -177 15 -235 26 -503
27 -514 47 -542 13 -19 19 -44 19 -86 0 -48 4 -62 23 -80 21 -20 34 -22 124
-22 98 0 102 1 122 26 15 20 21 41 21 81 0 30 6 63 15 76 11 17 22 134 45 472
17 247 29 486 28 530 l-3 80 -226 3 c-124 1 -228 -1 -232 -4z m413 -69 l0 -25
-185 0 -185 0 0 25 0 25 185 0 185 0 0 -25z m-5 -112 c-3 -21 -16 -222 -31
-448 -14 -225 -27 -416 -29 -422 -5 -16 -230 -18 -240 -3 -6 9 -64 808 -65
883 l0 27 185 0 185 0 -5 -37z m-87 -980 l-3 -48 -90 0 -90 0 -3 48 -3 47 96
0 96 0 -3 -47z"/>
</g>
</svg>
