<?xml version="1.0" standalone="no"?>
<!DOCTYPE svg PUBLIC "-//W3C//DTD SVG 20010904//EN"
 "http://www.w3.org/TR/2001/REC-SVG-20010904/DTD/svg10.dtd">
<svg version="1.0" xmlns="http://www.w3.org/2000/svg"
 width="188.000000pt" height="188.000000pt" viewBox="0 0 188.000000 188.000000"
 preserveAspectRatio="xMidYMid meet">
<metadata>
Created by potrace 1.16, written by Peter Selinger 2001-2019
</metadata>
<g transform="translate(0.000000,188.000000) scale(0.100000,-0.100000)"
fill="#000000" stroke="none">
<path d="M295 1238 c-113 -128 -185 -305 -185 -453 0 -84 40 -295 60 -320 11
-13 1506 -13 1519 0 21 21 61 234 61 320 0 148 -72 325 -185 453 l-47 52 -588
0 -588 0 -47 -52z m1175 8 c0 -5 -9 -40 -21 -78 -20 -67 -22 -70 -47 -64 -88
18 -464 27 -683 17 -129 -7 -246 -14 -261 -17 -25 -6 -27 -3 -47 64 -12 38
-21 73 -21 78 0 5 230 9 540 9 310 0 540 -4 540 -9z m-1095 -103 l22 -78 -25
-135 c-14 -74 -27 -137 -29 -140 -3 -3 -9 3 -14 12 -25 45 -114 72 -160 48
-11 -6 -19 -7 -19 -1 0 22 45 151 70 201 32 63 119 184 127 177 3 -3 15 -41
28 -84z m1191 25 c58 -78 96 -153 123 -242 26 -84 26 -89 2 -76 -34 17 -84 11
-124 -15 -20 -14 -37 -30 -37 -35 0 -6 -4 -10 -8 -10 -9 0 -56 239 -55 275 1
25 42 165 48 165 3 0 26 -28 51 -62z m-371 -88 c249 -14 224 2 257 -176 16
-82 26 -154 24 -160 -9 -24 -308 -53 -546 -53 -238 0 -537 29 -546 53 -2 6 8
78 24 160 33 178 12 163 237 175 218 12 358 12 550 1z m-937 -274 c15 -8 40
-34 55 -58 31 -50 39 -52 247 -80 126 -17 614 -17 740 0 208 28 216 30 247 80
44 70 98 89 146 52 22 -17 25 -26 21 -58 -11 -82 -48 -235 -60 -247 -9 -9 -26
-10 -56 -5 -56 10 -1349 7 -1365 -3 -22 -14 -39 21 -61 119 -34 162 -35 171
-5 194 30 24 54 25 91 6z"/>
</g>
</svg>
