<?xml version="1.0" standalone="no"?>
<!DOCTYPE svg PUBLIC "-//W3C//DTD SVG 20010904//EN"
 "http://www.w3.org/TR/2001/REC-SVG-20010904/DTD/svg10.dtd">
<svg version="1.0" xmlns="http://www.w3.org/2000/svg"
 width="188.000000pt" height="188.000000pt" viewBox="0 0 188.000000 188.000000"
 preserveAspectRatio="xMidYMid meet">
<metadata>
Created by potrace 1.16, written by Peter Selinger 2001-2019
</metadata>
<g transform="translate(0.000000,188.000000) scale(0.100000,-0.100000)"
fill="#000000" stroke="none">
<path d="M712 1377 c-16 -17 -22 -36 -22 -71 0 -44 -4 -53 -55 -109 l-55 -60
0 -338 0 -337 31 -26 31 -26 303 0 303 0 31 26 31 26 0 337 0 338 -55 60 c-51
57 -55 65 -55 110 0 39 -5 54 -23 71 -22 21 -31 22 -233 22 -207 0 -211 0
-232 -23z m436 -69 l3 -38 -205 0 -206 0 0 33 c0 19 3 37 7 41 4 3 95 5 202 4
l196 -3 3 -37z m65 -142 c30 -35 47 -64 47 -80 l0 -26 -315 0 -315 0 0 26 c0
16 17 45 48 80 l47 54 220 0 220 0 48 -54z m47 -331 l0 -175 -315 0 -315 0 0
175 0 175 315 0 315 0 0 -175z m0 -290 c0 -53 -3 -66 -19 -75 -12 -6 -125 -10
-296 -10 -171 0 -284 4 -296 10 -16 9 -19 22 -19 75 l0 65 315 0 315 0 0 -65z"/>
<path d="M920 885 c0 -20 -5 -25 -25 -25 -20 0 -25 -5 -25 -25 0 -20 5 -25 25
-25 20 0 25 -5 25 -25 0 -20 5 -25 25 -25 20 0 25 5 25 25 0 20 5 25 25 25 20
0 25 5 25 25 0 20 -5 25 -25 25 -20 0 -25 5 -25 25 0 20 -5 25 -25 25 -20 0
-25 -5 -25 -25z"/>
</g>
</svg>
