<?xml version="1.0" standalone="no"?>
<!DOCTYPE svg PUBLIC "-//W3C//DTD SVG 20010904//EN"
 "http://www.w3.org/TR/2001/REC-SVG-20010904/DTD/svg10.dtd">
<svg version="1.0" xmlns="http://www.w3.org/2000/svg"
 width="188.000000pt" height="188.000000pt" viewBox="0 0 188.000000 188.000000"
 preserveAspectRatio="xMidYMid meet">
<metadata>
Created by potrace 1.16, written by Peter Selinger 2001-2019
</metadata>
<g transform="translate(0.000000,188.000000) scale(0.100000,-0.100000)"
fill="#000000" stroke="none">
<path d="M443 1201 c-94 -43 -141 -190 -108 -338 21 -95 34 -121 79 -161 65
-57 169 -53 246 10 33 26 50 31 136 39 126 13 186 13 259 0 32 -6 73 -11 90
-11 21 0 47 -12 80 -37 45 -36 52 -38 121 -38 66 0 76 3 110 31 58 47 84 109
101 245 8 65 -34 182 -81 226 -68 63 -165 68 -249 12 -50 -33 -105 -40 -297
-39 -52 0 -122 0 -155 0 -42 0 -71 5 -95 19 -119 67 -163 75 -237 42z m186
-71 c40 -29 57 -34 126 -39 74 -6 80 -8 83 -29 3 -19 6 -21 18 -11 8 6 14 19
15 28 0 13 1 14 6 1 16 -43 53 -47 53 -6 1 19 2 18 16 -7 12 -23 18 -26 30
-16 8 6 14 19 15 28 0 11 3 9 9 -6 12 -28 27 -29 35 -3 3 11 9 20 13 20 102 4
143 10 171 26 82 47 98 54 129 54 59 0 132 -56 132 -100 0 -9 7 -31 16 -49 10
-20 14 -46 11 -69 -9 -77 -29 -158 -43 -180 -22 -34 -74 -62 -117 -62 -42 0
-65 10 -117 51 -28 22 -50 29 -115 36 -72 7 -80 10 -83 31 -4 28 -19 28 -28 0
l-7 -23 -8 23 c-11 28 -36 28 -45 0 l-7 -23 -8 23 c-5 12 -15 22 -23 22 -8 0
-18 -10 -22 -22 l-7 -23 -8 23 c-11 30 -29 28 -29 -3 0 -24 -3 -25 -60 -25
-69 0 -110 -14 -159 -55 -27 -24 -43 -29 -86 -29 -28 -1 -64 5 -78 13 -35 18
-62 78 -78 168 -10 63 -10 80 5 135 22 79 39 106 79 124 48 22 112 12 166 -26z"/>
</g>
</svg>
